<svg class="svg-4">
  <g>
    <path d="M48.045,107.593 C48.045,107.593 49.652,108.809 49.734,111.167 C49.817,113.524 49.175,128.742 49.175,128.742 C49.175,128.742 63.605,111.742 67.781,106.459 C71.223,102.104 71.828,93.900 65.649,88.601 C59.471,83.302 48.045,107.593 48.045,107.593 Z" class="cls-1"/>
    <path d="M18.898,90.765 C18.898,90.765 17.041,89.982 14.958,91.089 C12.876,92.196 0.017,100.360 0.017,100.360 C0.017,100.360 7.525,79.364 10.012,73.106 C12.062,67.948 18.865,63.322 26.543,66.023 C34.221,68.724 18.898,90.765 18.898,90.765 Z" class="cls-2"/>
    <path d="M26.019,95.743 L39.876,103.743 C41.550,104.709 42.123,106.850 41.157,108.524 C40.190,110.198 38.050,110.771 36.376,109.805 L22.519,101.805 C20.845,100.838 20.272,98.698 21.238,97.023 C22.205,95.349 24.345,94.776 26.019,95.743 Z" class="cls-3"/>
    <path d="M29.746,108.287 C33.573,110.496 34.884,115.389 32.675,119.215 C30.465,123.041 15.599,132.733 15.599,132.733 C15.599,132.733 16.609,115.041 18.818,111.215 C21.027,107.389 25.920,106.078 29.746,108.287 Z" class="cls-4"/>
    <path d="M91.438,4.160 C90.838,2.349 90.428,0.728 90.525,0.560 C90.622,0.393 90.656,0.262 90.601,0.271 C90.546,0.279 90.109,0.230 90.052,0.085 C89.996,-0.060 89.867,-0.036 89.767,0.138 C89.666,0.312 88.061,0.800 86.200,1.222 C86.200,1.222 51.089,9.185 35.389,37.937 C17.923,69.924 19.239,91.716 19.239,91.716 C19.201,93.625 20.522,95.966 22.175,96.921 L27.956,100.258 C29.609,101.212 31.130,102.090 31.336,102.210 C31.543,102.329 33.064,103.207 34.717,104.161 L40.856,107.706 C42.509,108.660 45.216,108.665 46.872,107.717 C46.872,107.717 65.431,97.353 84.400,66.234 C101.483,38.207 91.438,4.160 91.438,4.160 Z" class="cls-5"/>
    <path d="M70.930,33.955 C78.805,38.502 81.503,48.571 76.956,56.447 C72.410,64.322 62.340,67.020 54.465,62.473 C46.590,57.927 43.892,47.856 48.438,39.981 C52.985,32.106 63.055,29.408 70.930,33.955 Z" class="cls-6"/>
    <path d="M68.947,37.389 C74.926,40.841 76.974,48.486 73.523,54.464 C70.071,60.443 62.426,62.491 56.447,59.039 C50.469,55.588 48.420,47.943 51.872,41.964 C55.324,35.986 62.969,33.937 68.947,37.389 Z" class="cls-7"/>
  </g>
</svg>
