<svg width="88.593" height="130.349" viewBox="0 0 88.593 130.349" class="svg-2">
  <g>
    <path d="M-0.006,90.178 L3.943,130.338 L40.697,113.679 C40.697,113.679 32.877,87.224 -0.006,90.178 Z" class="cls-1"/>
    <path d="M76.845,3.139 C88.085,9.629 91.937,24.001 85.447,35.241 L79.947,44.767 C73.458,56.007 59.085,59.858 47.846,53.369 C36.606,46.879 32.755,32.507 39.244,21.267 L44.744,11.741 C51.233,0.501 65.606,-3.350 76.845,3.139 Z" class="cls-2"/>
    <path d="M44.494,12.174 C44.494,12.174 55.666,16.315 65.840,22.189 C76.018,28.065 85.197,35.674 85.197,35.674 L72.697,57.324 L31.994,33.824 L44.494,12.174 Z" class="cls-3"/>
    <path d="M34.037,30.045 C34.037,30.045 45.209,34.186 55.383,40.060 C65.561,45.936 74.740,53.545 74.740,53.545 L40.697,113.679 C40.697,113.679 37.735,109.659 32.171,106.446 C25.609,102.658 17.458,107.190 17.458,107.190 C17.458,107.190 17.552,98.006 10.393,93.873 C4.949,90.729 -0.006,90.178 -0.006,90.178 L34.037,30.045 Z" class="cls-4"/>
  </g>
</svg>
