<svg width="160.719" height="129.255" viewBox="0 0 160.719 129.255" class="svg-3">
  <g>
    <path d="M156.660,87.927 L151.923,90.198 C150.435,90.911 149.031,92.833 148.803,94.466 L147.604,99.272 C147.049,100.826 147.356,103.211 148.288,104.573 L151.748,109.631 C152.679,110.993 152.488,113.062 151.321,114.228 L146.182,119.367 C145.015,120.533 142.947,120.725 141.586,119.793 L136.479,116.300 C135.118,115.368 132.732,115.060 131.178,115.615 L127.005,116.683 C125.373,116.929 123.454,118.348 122.740,119.835 L120.886,123.700 C120.174,125.188 118.286,126.055 116.692,125.628 L109.672,123.747 C108.078,123.320 106.878,121.625 107.004,119.980 L107.342,115.569 C107.467,113.924 106.489,111.770 105.166,110.784 C105.166,110.784 104.856,110.553 103.625,109.322 C102.311,108.008 101.952,107.518 101.952,107.518 C100.976,106.188 98.833,105.202 97.187,105.328 L92.697,105.672 C91.051,105.799 89.356,104.597 88.929,103.004 L87.049,95.984 C86.622,94.390 87.490,92.503 88.977,91.789 L93.140,89.793 C94.629,89.079 96.052,87.162 96.306,85.531 L97.059,82.499 C97.586,80.936 97.255,78.543 96.323,77.181 L93.488,73.037 C92.556,71.675 92.748,69.606 93.915,68.439 L99.053,63.301 C100.220,62.134 102.289,61.941 103.650,62.873 L107.166,65.279 C108.527,66.211 110.884,66.444 112.402,65.799 L116.346,64.529 C117.960,64.182 119.864,62.682 120.578,61.194 L122.739,56.687 C123.453,55.199 125.341,54.331 126.934,54.758 L133.954,56.639 C135.548,57.066 136.748,58.762 136.622,60.407 L136.313,64.445 C136.187,66.090 137.201,68.194 138.566,69.120 C138.566,69.120 139.760,69.931 141.387,71.558 C142.386,72.557 142.386,72.557 142.386,72.557 C143.327,73.747 145.442,74.618 147.088,74.492 L152.940,74.043 C154.586,73.917 156.281,75.118 156.708,76.712 L158.589,83.731 C159.015,85.325 158.148,87.214 156.660,87.927 ZM128.423,84.523 C125.148,81.247 119.844,81.243 116.577,84.510 C113.308,87.778 113.315,93.080 116.590,96.356 C119.866,99.631 125.169,99.637 128.436,96.369 C131.704,93.103 131.697,87.799 128.423,84.523 ZM95.043,56.565 L88.623,57.769 C87.002,58.072 85.250,59.603 84.729,61.169 L82.871,65.704 C82.132,67.179 82.290,69.500 83.221,70.861 L86.904,76.244 C87.836,77.605 87.644,79.673 86.477,80.840 L80.819,86.499 C79.652,87.665 77.584,87.857 76.222,86.925 L70.908,83.289 C69.547,82.357 67.229,82.208 65.759,82.957 L61.115,84.891 C59.550,85.417 58.022,87.175 57.718,88.797 L56.544,95.063 C56.240,96.685 54.641,98.012 52.991,98.012 L44.991,98.012 C43.341,98.012 41.742,96.685 41.438,95.063 L40.270,88.837 C39.967,87.215 38.436,85.463 36.870,84.944 L32.152,83.000 C30.679,82.257 28.360,82.410 26.999,83.342 L21.761,86.925 C20.400,87.857 18.332,87.665 17.165,86.499 L11.507,80.840 C10.340,79.673 10.148,77.605 11.080,76.243 L14.671,70.995 C15.602,69.633 15.758,67.313 15.014,65.840 L13.079,61.136 C12.558,59.570 10.806,58.040 9.185,57.736 L2.939,56.565 C1.318,56.261 -0.009,54.662 -0.009,53.012 L-0.009,45.012 C-0.009,43.362 1.318,41.763 2.939,41.459 L9.185,40.288 C10.806,39.984 12.558,38.454 13.079,36.888 L15.013,32.185 C15.757,30.712 15.601,28.392 14.670,27.030 L11.079,21.781 C10.147,20.419 10.339,18.350 11.506,17.183 L17.163,11.526 C18.330,10.359 20.398,10.167 21.759,11.098 L26.998,14.682 C28.359,15.614 30.678,15.768 32.151,15.024 L36.870,13.079 C38.436,12.560 39.967,10.808 40.270,9.186 L41.438,2.961 C41.742,1.339 43.341,0.012 44.991,0.012 L52.991,0.012 C54.641,0.012 56.240,1.339 56.544,2.961 L57.718,9.227 C58.022,10.848 59.550,12.606 61.115,13.132 L65.760,15.067 C67.230,15.816 69.548,15.666 70.909,14.734 L76.222,11.099 C77.584,10.167 79.653,10.359 80.819,11.526 L86.477,17.183 C87.643,18.350 87.836,20.419 86.904,21.780 L83.221,27.162 C82.290,28.524 82.132,30.845 82.871,32.320 L84.729,36.856 C85.250,38.422 87.002,39.951 88.623,40.256 L95.043,41.459 C96.664,41.764 97.991,43.362 97.991,45.012 L97.991,53.012 C97.991,54.662 96.664,56.261 95.043,56.565 ZM48.908,36.040 C41.760,36.040 35.967,41.848 35.967,49.012 C35.967,56.176 41.760,61.984 48.908,61.984 C56.055,61.984 61.848,56.176 61.848,49.012 C61.848,41.848 56.055,36.040 48.908,36.040 Z" class="cls-1"/>
    <path d="M131.468,99.391 C126.531,104.327 118.521,104.319 113.571,99.370 C108.625,94.422 108.614,86.412 113.552,81.475 C118.488,76.539 126.500,76.547 131.447,81.495 C136.393,86.444 136.404,94.456 131.468,99.391 ZM48.909,67.497 C38.726,67.497 30.473,59.223 30.473,49.017 C30.473,38.811 38.726,30.538 48.909,30.538 C59.091,30.538 67.344,38.811 67.344,49.017 C67.344,59.223 59.091,67.497 48.909,67.497 Z" class="cls-2"/>
    <path d="M97.844,118.874 C72.844,95.875 94.844,64.874 94.844,64.874 L149.844,117.875 C149.844,117.875 123.884,142.831 97.844,118.874 ZM12.844,83.875 C-21.156,46.875 13.844,13.875 13.844,13.875 L83.844,83.875 C83.844,83.875 46.844,120.874 12.844,83.875 Z" class="cls-3"/>
  </g>
</svg>
